<?xml version="1.0" standalone="no"?>
<!DOCTYPE svg PUBLIC "-//W3C//DTD SVG 20010904//EN"
 "http://www.w3.org/TR/2001/REC-SVG-20010904/DTD/svg10.dtd">
<svg version="1.0" xmlns="http://www.w3.org/2000/svg"
 width="320.000000pt" height="320.000000pt" viewBox="0 0 320.000000 320.000000"
 preserveAspectRatio="xMidYMid meet">
<metadata>
Created by potrace 1.11, written by Peter Selinger 2001-2013
</metadata>
<g transform="translate(0.000000,320.000000) scale(0.100000,-0.100000)"
fill="#000000" stroke="none">
<path d="M2059 2935 c-2 -2 -37 -5 -77 -6 -201 -6 -467 -96 -672 -227 -340
-216 -606 -569 -715 -947 -43 -148 -58 -249 -58 -400 -1 -143 9 -229 39 -333
109 -377 422 -607 836 -617 331 -8 660 124 905 363 89 87 179 198 185 227 6
38 -30 26 -94 -31 -495 -445 -1242 -379 -1432 127 l-25 67 34 6 c19 4 103 27
187 51 632 181 1138 547 1337 966 60 127 80 209 77 326 -4 134 -29 197 -110
278 -87 86 -209 137 -346 144 -30 2 -58 4 -61 7 -3 2 -8 2 -10 -1z m-16 -319
c272 -85 224 -422 -108 -746 -42 -41 -82 -79 -88 -85 -212 -182 -538 -349
-842 -431 -66 -17 -91 -21 -96 -12 -13 21 -3 261 15 341 94 432 394 810 728
917 37 12 89 25 115 29 69 12 220 4 276 -13z"/>
</g>
</svg>
