<svg version="1.0" xmlns="http://www.w3.org/2000/svg" viewBox="0 0 1024 1024"><defs/><path d="M426.7 20.6c-.1.1-4.6.5-9.9.8-5.4.4-10.3.8-11 1.1-.7.2-3.5.6-6.3.9-2.7.3-5.9.8-7 1-1.1.2-3.6.6-5.5 1-44.5 8.1-86.3 30.7-120.3 65.1-37.8 38.2-68.2 94.5-88.3 163.5-2.5 8.5-4.7 16.2-4.9 17.1-.2.8-1.7 7.1-3.3 14-5 20.3-11.5 54.7-13.7 72.3-.3 2.7-.8 5.2-.9 5.5-.2.3-.7 4-1.1 8.1-.3 4.1-.8 8.2-1 9-.3.8-.7 4-1 7-.2 3-.7 8-1 11-3.9 38.1-5 63.9-5 115.5.1 40.4.5 54.6 2 71 .3 3.3.7 8.2.9 11 .6 8.2 1.8 19.8 2.2 22.5.2 1.4.6 4.5.9 7 .7 5.5 4.4 30.6 5 34 .3 1.4.7 3.8 1 5.5 9.5 52.3 28 105.3 48.6 139.4 2.2 3.4 3.9 6.5 3.9 6.7 0 1.1 13.1 19.4 20.3 28.4 8 9.9 23.7 25.9 33.7 34.3 7 5.9 28.6 20.1 38 24.9 24.6 12.7 54.8 22.1 80.9 25.3 3 .4 6.1.8 7 1 3.8.7 21.3 1.8 29.6 1.8 38.5.2 74.7-14 105.3-41.1 44.7-39.5 77.1-103 89.6-175.2 1.3-7.6 1.9-11.4 3.1-21.5 1.1-9.3 1.7-22.6 1.7-34.5-.2-15-.4-18.5-2.7-37.5-.9-7.2-3.9-19.8-7.1-29.5-12.6-38.1-35.1-61.1-66.3-67.6-7.6-1.6-23.1-2-30.6-.9-17.8 2.6-23.1 4.5-28.6 10.1-11.8 12.2-28.7 19.6-44.9 19.5-33.9-.1-65.1-20.7-77.9-51.6-5.3-12.6-7-22.2-6.7-37.5.3-16.7 3.1-28 10.2-42.3 7.4-14.6 21.3-29.8 35.1-38 8-4.8 21.7-10.3 28.3-11.3 1.9-.3 3.7-.7 4-.9 2.6-1.6 45.3-2.3 59-1 16.1 1.5 34.5 4.6 45 7.6 4.1 1.1 8.2 2.2 9 2.4 3.9.9 23 8 29.7 11.1 4.1 1.8 7.6 3.4 7.8 3.4.2 0 5.4 2.9 11.7 6.4C661 433.7 706.4 501.8 722.9 588c1.1 5.8 2.3 12.8 2.6 15.5.3 2.8.7 6.3.9 8 2.8 21.8 2.9 71.3.1 86.5-.2 1.4-.7 4.7-1 7.5-.3 2.7-1 7.5-1.5 10.5s-1.2 7.1-1.5 9c-1.1 6.7-6.4 29-8.6 36.2-1.2 4-2.4 7.7-2.5 8.3-.6 2.8-8 23-11 30.4-15.1 36.5-37.4 71.9-62.9 100-40.7 44.8-91.1 76.7-151 95.4-8.9 2.8-28.1 7.8-30.7 8-.9.1-1.5.3-1.3.6.9.8 34.3-.2 45-1.3 1.7-.2 6.2-.7 10-1 3.9-.4 8.1-.9 9.5-1.1 1.4-.2 4.9-.7 7.9-1 3-.4 6.3-.9 7.5-1.1 1.2-.2 3.5-.7 5.1-.9 49.9-8.6 99.7-26 139.5-48.9 4.7-2.7 10.1-5.8 12-6.9 10.7-6 39.4-26.4 50.5-35.9 58.1-49.2 101.1-109.6 126-176.8 1.5-4.1 3.1-8.4 3.6-9.5 2.4-5.5 10.3-32.8 13-45 .4-2.2 1.1-5.1 1.4-6.5 1.5-6.5 4.4-23.2 5-29 .4-3.6.9-7.3 1.1-8.4.4-2 1.3-11.9 1.9-20.6.7-9 .7-39 0-47-2.8-35.2-7.8-61.5-17.5-91-1.7-5.2-3.5-10.4-3.9-11.5-.5-1.1-3-7.2-5.7-13.5-19.2-46.1-53.4-94.4-92-129.9-13.5-12.5-47-37.9-52.4-39.9-.8-.3-2.2-1.1-3-1.7-7.4-6.1-49.3-27.2-86-43.5-31.5-13.9-66.6-31-75.8-36.9-3.4-2.3-6.7-4.1-7.2-4.1-.4 0-1-.3-1.2-.8-.1-.4-3.2-2.7-6.8-5.1-39.7-27-66.9-67.2-80-118.1-.7-2.5-1.4-5.2-1.6-6-1.2-4.5-5.5-25.7-5.9-29.3-1-7.9-1.7-10.7-2.9-10.8-1.9-.2-24.8-.4-24.9-.3z"/></svg>