<?xml version="1.0" standalone="no"?>
<!DOCTYPE svg PUBLIC "-//W3C//DTD SVG 20010904//EN"
 "http://www.w3.org/TR/2001/REC-SVG-20010904/DTD/svg10.dtd">
<svg version="1.0" xmlns="http://www.w3.org/2000/svg"
 width="1024.000000pt" height="1024.000000pt" viewBox="0 0 1024.000000 1024.000000"
 preserveAspectRatio="xMidYMid meet">
<metadata>
Created by potrace 1.11, written by Peter Selinger 2001-2013
</metadata>
<g transform="translate(0.000000,1024.000000) scale(0.100000,-0.100000)"
fill="#000000" stroke="none">
<path d="M4735 10230 c-1480 -120 -2815 -849 -3701 -2022 -568 -753 -903
-1601 -1010 -2553 -21 -195 -30 -669 -15 -880 88 -1251 607 -2393 1490 -3276
877 -876 2017 -1398 3256 -1489 179 -13 550 -13 730 0 992 73 1917 419 2710
1015 645 485 1173 1122 1525 1840 291 595 461 1227 510 1890 13 180 13 550 0
730 -81 1102 -506 2134 -1226 2975 -126 148 -396 418 -544 544 -809 693 -1754
1097 -2845 1217 -130 14 -738 20 -880 9z m884 -2135 c973 -108 1838 -500 2443
-1108 446 -448 719 -987 799 -1577 19 -138 16 -469 -5 -610 -29 -200 -19 -181
-116 -214 -47 -15 -150 -43 -230 -62 -913 -210 -1786 7 -2589 644 -131 104
-219 183 -421 377 -443 425 -820 686 -1275 880 -415 177 -810 258 -1265 258
-306 0 -539 -28 -825 -99 -88 -22 -296 -84 -343 -101 -18 -7 34 69 157 232 89
117 298 335 426 445 636 544 1481 876 2420 950 163 13 656 4 824 -15z m-2419
-2556 c441 -48 912 -271 1315 -624 44 -38 145 -133 225 -210 395 -381 724
-632 1125 -860 640 -364 1414 -559 2099 -530 l159 7 -21 -29 c-24 -33 -225
-217 -327 -298 -250 -199 -581 -394 -897 -529 -367 -156 -823 -272 -1268 -322
-237 -27 -764 -25 -1000 4 -844 103 -1543 383 -2150 861 -150 118 -421 396
-537 551 -318 424 -504 893 -539 1357 l-7 89 94 61 c591 380 1155 534 1729
472z"/>
</g>
</svg>
