<?xml version="1.0" encoding="UTF-8" standalone="no"?>
<svg
   xmlns:dc="http://purl.org/dc/elements/1.1/"
   xmlns:cc="http://creativecommons.org/ns#"
   xmlns:rdf="http://www.w3.org/1999/02/22-rdf-syntax-ns#"
   xmlns:svg="http://www.w3.org/2000/svg"
   xmlns="http://www.w3.org/2000/svg"
   xmlns:xlink="http://www.w3.org/1999/xlink"
   xmlns:sodipodi="http://sodipodi.sourceforge.net/DTD/sodipodi-0.dtd"
   xmlns:inkscape="http://www.inkscape.org/namespaces/inkscape"
   version="1.1"
   viewBox="0 0 1200 675"
   height="675"
   width="1200"
   id="svg16"
   sodipodi:docname="og-image.svg"
   inkscape:version="0.92.3 (2405546, 2018-03-11)"
   inkscape:export-filename="/home/stgogm/Workspace/final/fi-slseed-app/public/static/images/og-image.png"
   inkscape:export-xdpi="96"
   inkscape:export-ydpi="96">
  <sodipodi:namedview
     pagecolor="#ffffff"
     bordercolor="#666666"
     borderopacity="1"
     objecttolerance="10"
     gridtolerance="10"
     guidetolerance="10"
     inkscape:pageopacity="0"
     inkscape:pageshadow="2"
     inkscape:window-width="1920"
     inkscape:window-height="988"
     id="namedview18"
     showgrid="false"
     inkscape:zoom="0.62833333"
     inkscape:cx="376.4858"
     inkscape:cy="208.91077"
     inkscape:window-x="0"
     inkscape:window-y="27"
     inkscape:window-maximized="1"
     inkscape:current-layer="layer1"
     inkscape:snap-page="true" />
  <defs
     id="defs4">
    <linearGradient
       id="linearGradient4831">
      <stop
         id="stop4833"
         offset="0"
         style="stop-color:#ffffff;stop-opacity:1" />
      <stop
         id="stop4835"
         offset="1"
         style="stop-color:#f7f7f7;stop-opacity:1" />
    </linearGradient>
    <radialGradient
       gradientUnits="userSpaceOnUse"
       gradientTransform="matrix(1,0,0,0.56250001,0,300.09596)"
       r="600"
       fy="737.36212"
       fx="600"
       cy="737.36212"
       cx="600"
       id="radialGradient4837"
       xlink:href="#linearGradient4831" />
  </defs>
  <metadata
     id="metadata7">
    <rdf:RDF>
      <cc:Work
         rdf:about="">
        <dc:format>image/svg+xml</dc:format>
        <dc:type
           rdf:resource="http://purl.org/dc/dcmitype/StillImage" />
        <dc:title></dc:title>
      </cc:Work>
    </rdf:RDF>
  </metadata>
  <g
     transform="translate(0,-377.36216)"
     id="layer1">
    <rect
       y="377.36215"
       x="0"
       height="675"
       width="1200"
       id="rect4821"
       style="opacity:1;fill:url(#radialGradient4837);fill-opacity:1;stroke:none;stroke-width:1.03509831" />
    <g
       id="g842"
       transform="translate(20.000002,-17.499983)">
      <g
         id="g4788"
         transform="matrix(0.56249998,0,0,0.56249998,437.1427,471.66966)">
        <path
           inkscape:connector-curvature="0"
           style="display:inline;fill:#b9de3b;fill-opacity:1;fill-rule:nonzero;stroke:none"
           d="m -137.1426,463.45331 c 0,88.36577 -71.63402,160.00001 -160.00083,160.00001 -88.36498,0 -159.99917,-71.63424 -159.99917,-160.00001 0,-88.36575 71.63419,-159.99999 159.99917,-159.99999 88.36681,0 160.00083,71.63424 160.00083,159.99999 z"
           id="path4210" />
        <ellipse
           style="opacity:1;fill:#ffffff;fill-opacity:1;stroke:none;stroke-width:1;stroke-miterlimit:4;stroke-dasharray:none;stroke-dashoffset:0"
           id="path4223"
           cx="-296.94449"
           cy="463.45331"
           rx="117.33064"
           ry="93.864525" />
        <path
           inkscape:connector-curvature="0"
           style="fill:none;fill-rule:evenodd;stroke:#b9de3b;stroke-width:35.19919586;stroke-linecap:butt;stroke-linejoin:miter;stroke-miterlimit:4;stroke-dasharray:none;stroke-opacity:1"
           d="m -437.74128,463.45332 c 0,0 70.39839,-70.39839 140.79678,-1e-5 70.39839,70.39838 140.79677,23.46614 140.79677,23.46614"
           id="path4246" />
      </g>
      <g
         id="text4817"
         style="font-style:normal;font-weight:normal;line-height:0%;font-family:sans-serif;letter-spacing:0px;word-spacing:0px;fill:#999999;fill-opacity:1;stroke:none;stroke-width:1px;stroke-linecap:butt;stroke-linejoin:miter;stroke-opacity:1"
         aria-label="fi seed">
        <path
           inkscape:connector-curvature="0"
           id="path828"
           style="font-style:normal;font-variant:normal;font-weight:normal;font-stretch:normal;font-size:154.48603821px;line-height:1.25;font-family:'Ubuntu Mono';-inkscape-font-specification:'Ubuntu Mono'"
           d="m 475.13962,785.04193 v -61.02198 h -15.13964 v -10.65954 h 15.13964 V 706.872 q 0,-8.34225 2.31729,-13.74926 2.31729,-5.5615 6.02495,-8.96019 3.86215,-3.39869 8.80571,-4.78907 5.09804,-1.39037 10.65953,-1.39037 5.5615,0 11.123,1.23588 5.71598,1.23589 10.65953,2.93524 l -2.31729,10.96851 q -3.39869,-1.69935 -8.49673,-2.93524 -5.09804,-1.23588 -10.35056,-1.23588 -3.24421,0 -6.17944,0.92691 -2.78075,0.77243 -4.94356,2.93524 -2.1628,2.00831 -3.39869,5.56149 -1.23589,3.3987 -1.23589,8.65122 v 6.33393 h 28.88889 v 10.65954 h -28.88889 v 61.02198 z" />
        <path
           inkscape:connector-curvature="0"
           id="path830"
           style="font-style:normal;font-variant:normal;font-weight:normal;font-stretch:normal;font-size:154.48603821px;line-height:1.25;font-family:'Ubuntu Mono';-inkscape-font-specification:'Ubuntu Mono'"
           d="m 559.79797,702.23741 q -4.01664,0 -6.95188,-2.78074 -2.93523,-2.78075 -2.93523,-7.56982 0,-4.78907 2.93523,-7.56982 2.93524,-2.78074 6.95188,-2.78074 4.17112,0 6.95187,2.78074 2.93523,2.78075 2.93523,7.56982 0,4.78907 -2.93523,7.56982 -2.78075,2.78074 -6.95187,2.78074 z m -3.24421,21.78254 h -20.70113 v -10.65954 h 33.36898 v 44.02852 q 0,10.65954 2.93524,14.3672 2.93523,3.55318 8.8057,3.55318 4.4801,0 8.18776,-1.0814 3.86215,-1.0814 6.02496,-2.31729 l 1.85383,10.81402 q -0.92692,0.46346 -2.62626,1.23589 -1.69935,0.61794 -4.01664,1.23589 -2.1628,0.61794 -4.94355,1.0814 -2.62626,0.46346 -5.5615,0.46346 -6.79739,0 -11.27748,-1.85383 -4.4801,-1.85384 -7.26084,-5.5615 -2.62627,-3.70767 -3.70767,-9.11468 -1.0814,-5.5615 -1.0814,-12.82234 z" />
        <path
           inkscape:connector-curvature="0"
           id="path832"
           style="font-style:normal;font-variant:normal;font-weight:normal;font-stretch:normal;font-size:154.48603821px;line-height:1.25;font-family:'Ubuntu Mono';-inkscape-font-specification:'Ubuntu Mono'"
           d="m 736.22103,767.12155 q 0,-3.86215 -3.24421,-6.33393 -3.08972,-2.47177 -7.87879,-4.32561 -4.63458,-1.85383 -10.19607,-3.55317 -5.5615,-1.85384 -10.35057,-4.4801 -4.63458,-2.62626 -7.87879,-6.48841 -3.08972,-3.86215 -3.08972,-10.0416 0,-8.65121 6.95187,-14.3672 7.10636,-5.87047 22.09151,-5.87047 5.87047,0 12.04991,0.92692 6.33393,0.77243 10.81402,2.1628 l -2.31729,11.43197 q -1.23589,-0.61794 -3.39869,-1.23589 -2.16281,-0.77243 -4.94356,-1.23589 -2.78074,-0.61794 -6.02495,-0.92691 -3.08972,-0.30897 -6.02496,-0.30897 -16.68449,0 -16.68449,9.11467 0,3.24421 3.08972,5.5615 3.24421,2.1628 8.03328,4.01664 4.78906,1.85383 10.35056,3.86215 5.5615,1.85383 10.35057,4.63458 4.78906,2.78075 7.87878,6.79738 3.24421,3.86216 3.24421,9.88711 0,9.73262 -7.56982,15.13963 -7.56981,5.25253 -23.94533,5.25253 -7.41533,0 -13.59477,-1.23589 -6.17944,-1.23589 -11.74094,-3.70767 l 2.47177,-11.58645 q 5.40702,2.47178 11.27749,4.17112 6.02495,1.54486 12.82234,1.54486 17.45692,0 17.45692,-8.8057 z" />
        <path
           inkscape:connector-curvature="0"
           id="path834"
           style="font-style:normal;font-variant:normal;font-weight:normal;font-stretch:normal;font-size:154.48603821px;line-height:1.25;font-family:'Ubuntu Mono';-inkscape-font-specification:'Ubuntu Mono'"
           d="m 799.25132,711.66106 q 14.52169,0 22.40048,9.11468 7.87879,8.96019 7.87879,27.34403 v 4.48009 h -51.28937 q 0.77243,11.123 7.26085,16.99347 6.6429,5.71598 18.53832,5.71598 6.79739,0 11.58645,-1.0814 4.78907,-1.0814 7.26085,-2.31729 l 1.69935,10.81402 q -2.3173,1.23589 -8.34225,2.62626 -6.02496,1.39038 -13.59477,1.39038 -9.26916,0 -16.37552,-2.78075 -6.95187,-2.93524 -11.58646,-7.87879 -4.63458,-4.94355 -6.95187,-11.74094 -2.31729,-6.95187 -2.31729,-14.98514 0,-9.57814 2.93524,-16.6845 2.93523,-7.10635 7.7243,-11.74093 4.78907,-4.63459 10.81402,-6.95188 6.02496,-2.31729 12.35888,-2.31729 z m 17.30244,30.58824 q 0,-9.11468 -4.78907,-14.3672 -4.78906,-5.40701 -12.66785,-5.40701 -4.4801,0 -8.18776,1.69934 -3.55318,1.69935 -6.17944,4.4801 -2.62627,2.78075 -4.17113,6.33392 -1.54486,3.55318 -2.00831,7.26085 z" />
        <path
           inkscape:connector-curvature="0"
           id="path836"
           style="font-style:normal;font-variant:normal;font-weight:normal;font-stretch:normal;font-size:154.48603821px;line-height:1.25;font-family:'Ubuntu Mono';-inkscape-font-specification:'Ubuntu Mono'"
           d="m 876.49434,711.66106 q 14.52168,0 22.40047,9.11468 7.87879,8.96019 7.87879,27.34403 v 4.48009 h -51.28936 q 0.77243,11.123 7.26084,16.99347 6.6429,5.71598 18.53832,5.71598 6.79739,0 11.58646,-1.0814 4.78906,-1.0814 7.26084,-2.31729 l 1.69935,10.81402 q -2.31729,1.23589 -8.34225,2.62626 -6.02495,1.39038 -13.59477,1.39038 -9.26916,0 -16.37552,-2.78075 -6.95187,-2.93524 -11.58645,-7.87879 -4.63458,-4.94355 -6.95188,-11.74094 -2.31729,-6.95187 -2.31729,-14.98514 0,-9.57814 2.93524,-16.6845 2.93523,-7.10635 7.7243,-11.74093 4.78907,-4.63459 10.81402,-6.95188 6.02496,-2.31729 12.35889,-2.31729 z m 17.30243,30.58824 q 0,-9.11468 -4.78906,-14.3672 -4.78907,-5.40701 -12.66786,-5.40701 -4.48009,0 -8.18776,1.69934 -3.55318,1.69935 -6.17944,4.4801 -2.62626,2.78075 -4.17112,6.33392 -1.54486,3.55318 -2.00832,7.26085 z" />
        <path
           inkscape:connector-curvature="0"
           id="path838"
           style="font-style:normal;font-variant:normal;font-weight:normal;font-stretch:normal;font-size:154.48603821px;line-height:1.25;font-family:'Ubuntu Mono';-inkscape-font-specification:'Ubuntu Mono'"
           d="m 967.17766,728.50004 q -2.1628,-2.00832 -6.33392,-3.70766 -4.17113,-1.85384 -8.65122,-1.85384 -5.09804,0 -8.80571,2.00832 -3.55318,2.00832 -5.87047,5.5615 -2.31729,3.39869 -3.39869,8.34225 -1.0814,4.78906 -1.0814,10.35056 0,12.51337 5.87047,19.31076 5.87047,6.79738 15.29412,6.79738 4.78906,0 8.03327,-0.46346 3.39869,-0.46346 4.94355,-0.92691 z m 0,-48.35413 L 980,677.98311 v 105.0505 q -4.17112,1.23589 -10.65953,2.47178 -6.48842,1.23589 -15.13963,1.23589 -7.72431,0 -14.05823,-2.62627 -6.33393,-2.62626 -10.81403,-7.41532 -4.48009,-4.94356 -6.95187,-11.89543 -2.47177,-6.95187 -2.47177,-15.60309 0,-8.34225 2.00831,-15.13963 2.16281,-6.95187 6.17945,-11.89543 4.01663,-4.94355 9.57813,-7.7243 5.71598,-2.78075 12.97683,-2.78075 5.71598,0 10.04159,1.39038 4.32561,1.39037 6.48841,2.93523 z" />
      </g>
    </g>
  </g>
</svg>
