<?xml version="1.0" encoding="UTF-8" standalone="no"?>
<svg
   xmlns:dc="http://purl.org/dc/elements/1.1/"
   xmlns:cc="http://creativecommons.org/ns#"
   xmlns:rdf="http://www.w3.org/1999/02/22-rdf-syntax-ns#"
   xmlns:svg="http://www.w3.org/2000/svg"
   xmlns="http://www.w3.org/2000/svg"
   id="svg8"
   version="1.1"
   viewBox="0 0 4.5155555 4.5155555"
   height="16"
   width="16">
  <defs
     id="defs2">
    <clipPath
       id="clipPath4472"
       clipPathUnits="userSpaceOnUse">
      <circle
         style="fill:#ff9a4c;fill-opacity:1;stroke:none;stroke-width:1.41111112;stroke-linecap:round;stroke-linejoin:round;stroke-miterlimit:4;stroke-dasharray:none"
         id="circle4474"
         cx="38.805557"
         cy="167.17778"
         r="14.111111" />
    </clipPath>
  </defs>
  <metadata
     id="metadata5">
    <rdf:RDF>
      <cc:Work
         rdf:about="">
        <dc:format>image/svg+xml</dc:format>
        <dc:type
           rdf:resource="http://purl.org/dc/dcmitype/StillImage" />
        <dc:title></dc:title>
      </cc:Work>
    </rdf:RDF>
  </metadata>
  <g
     transform="translate(-10.583334,-80.817773)"
     id="layer1">
    <path
       style="color:#000000;font-style:normal;font-variant:normal;font-weight:normal;font-stretch:normal;font-size:medium;line-height:normal;font-family:sans-serif;text-indent:0;text-align:start;text-decoration:none;text-decoration-line:none;text-decoration-style:solid;text-decoration-color:#000000;letter-spacing:normal;word-spacing:normal;text-transform:none;direction:ltr;block-progression:tb;writing-mode:lr-tb;baseline-shift:baseline;text-anchor:start;white-space:normal;clip-rule:nonzero;display:inline;overflow:visible;visibility:visible;opacity:1;isolation:auto;mix-blend-mode:normal;color-interpolation:sRGB;color-interpolation-filters:linearRGB;solid-color:#000000;solid-opacity:1;fill:#000000;fill-opacity:1;fill-rule:nonzero;stroke:none;stroke-width:1.411111;stroke-linecap:round;stroke-linejoin:round;stroke-miterlimit:4;stroke-dasharray:none;stroke-dashoffset:0;stroke-opacity:1;color-rendering:auto;image-rendering:auto;shape-rendering:auto;text-rendering:auto;enable-background:accumulate"
       d="m 13.855629,81.70405 -1.119129,1.028017 -0.07832,2.318854 1.154112,-0.767628 z m -2.306881,0.689113 -0.642594,1.133592 c -0.0105,0.01852 -0.0161,0.03522 -0.01892,0.04953 l -0.306696,1.555477 c -0.01044,0.05293 0.06263,0.08628 0.103541,0.04756 l 0.770649,-0.72946 z"
       id="path5341" />
    <path
       id="path5343"
       d="m 14.069429,80.928197 c -0.152527,0 -0.276169,0.123645 -0.276169,0.276169 0,0.152524 0.123642,0.276169 0.276169,0.276169 0.152521,0 0.276169,-0.123645 0.276169,-0.276169 0,-0.152524 -0.123648,-0.276169 -0.276169,-0.276169 z"
       style="fill:#000000;fill-opacity:1;stroke:none;stroke-width:2.82222199;stroke-linecap:round;stroke-linejoin:round;stroke-miterlimit:4;stroke-dasharray:none;stroke-opacity:1" />
    <path
       id="path5345"
       d="m 11.860079,81.631172 c -0.152525,0 -0.276168,0.123645 -0.276168,0.276169 0,0.152524 0.123643,0.276169 0.276168,0.276169 0.152526,0 0.276169,-0.123645 0.276169,-0.276169 0,-0.152524 -0.123643,-0.276169 -0.276169,-0.276169 z"
       style="fill:#000000;fill-opacity:1;stroke:none;stroke-width:2.82222199;stroke-linecap:round;stroke-linejoin:round;stroke-miterlimit:4;stroke-dasharray:none;stroke-opacity:1" />
    <path
       id="path5347"
       d="m 13.82097,81.795746 -0.07763,2.533406 c 0,0 0.03437,-0.02286 0.138916,0.03061 l 1.133704,0.579798 c 0.03632,0.01858 0.08604,-0.01089 0.08277,-0.0485 l -0.20796,-2.39235 c -0.0021,-0.02422 -0.01814,-0.03879 -0.03815,-0.0558 L 13.987553,81.7072 c -0.06245,-0.05311 -0.162917,-0.0311 -0.166583,0.08855 z m -2.280883,0.624026 -0.183653,2.123038 c 0,0 0.06048,-0.05718 0.124159,-0.02638 l 1.110117,0.536891 c 0.03944,0.01908 0.09037,-0.0013 0.09219,-0.04246 l 0.103021,-2.324176 -1.155649,-0.325918 c -0.06171,-0.0174 -0.08808,0.03468 -0.09018,0.05901 z"
       style="fill:#000000;fill-opacity:1;stroke:none;stroke-width:2.82222199;stroke-linecap:round;stroke-linejoin:round;stroke-miterlimit:4;stroke-dasharray:none;stroke-opacity:1" />
    <path
       id="path5409"
       d="m 12.711292,82.861244 c -0.33278,0 -0.60255,0.269771 -0.60255,0.60255 0,0.332779 0.301274,0.753187 0.60255,0.903825 0.301274,-0.150638 0.602549,-0.571046 0.602549,-0.903825 0,-0.332779 -0.26977,-0.60255 -0.602549,-0.60255 z"
       style="fill:#ffffff;fill-opacity:1;stroke:none;stroke-width:2.82222223;stroke-linecap:round;stroke-linejoin:round;stroke-miterlimit:4;stroke-dasharray:none;stroke-opacity:1" />
    <path
       style="fill:#000000;fill-opacity:1;stroke:none;stroke-width:2.82222199;stroke-linecap:round;stroke-linejoin:round;stroke-miterlimit:4;stroke-dasharray:none;stroke-opacity:1"
       d="m 12.711292,83.187625 c -0.152526,0 -0.276169,0.123645 -0.276169,0.276168 0,0.152524 0.123643,0.276169 0.276169,0.276169 0.152525,0 0.276168,-0.123645 0.276168,-0.276169 0,-0.152523 -0.123643,-0.276168 -0.276168,-0.276168 z"
       id="path5391" />
  </g>
</svg>
